HIERARCHY
ROOT Hips
{
  OFFSET -30.9074 93.2485 5.86677
  CHANNELS 6 Xposition Yposition Zposition Zrotation Xrotation Yrotation
  JOINT LeftUpLeg
  {
    OFFSET 9.63379 -0.250344 0
    CHANNELS 6 Xposition Yposition Zposition Zrotation Xrotation Yrotation
    JOINT LeftLeg
    {
      OFFSET 0 -40.4779 -1.71313
      CHANNELS 6 Xposition Yposition Zposition Zrotation Xrotation Yrotation
      JOINT LeftFoot
      {
        OFFSET 0.0126047 -40.4416 -0.864524
        CHANNELS 6 Xposition Yposition Zposition Zrotation Xrotation Yrotation
        JOINT LeftToeBase
        {
          OFFSET -0.183287 -12.1867 8.28226
          CHANNELS 6 Xposition Yposition Zposition Zrotation Xrotation Yrotation
          End Site
          {
            OFFSET 0 0 9.15615
          }
        }
      }
    }
  }
}
MOTION
Frames:	28
Frame Time:	0.00833333
-26.93 92.657 -60.8273 1.2636 1.52752 4.19745 9.63379 -0.250344 -7.15256e-007 0.722753 -2.29376 9.81648 0 -40.4779 -1.71313 0.204629 3.57871 -0.0432576 0.0126047 -40.4416 -0.864524 0.056783 -0.965442 -0.00516688 -0.183287 -12.1867 8.28226 2.77363e-011 3.82565e-011 9.42414e-011 
-26.9303 92.6562 -60.8236 1.26639 1.53917 4.17442 9.63379 -0.250344 -7.15256e-007 0.712509 -2.2887 9.80258 0 -40.4779 -1.71313 0.212556 3.55702 -0.0432566 0.0126047 -40.4416 -0.864524 0.0567837 -0.956882 -0.00516686 -0.183287 -12.1867 8.28226 2.77363e-011 3.82565e-011 9.42414e-011 
-26.9307 92.6554 -60.8201 1.27002 1.5497 4.15159 9.63379 -0.250344 -7.15256e-007 0.702158 -2.28306 9.78966 0 -40.4779 -1.71313 0.219117 3.53571 -0.0432556 0.0126047 -40.4416 -0.864524 0.0567845 -0.948438 -0.00516685 -0.183287 -12.1867 8.28226 2.77363e-011 3.82565e-011 9.42414e-011 
-26.9314 92.6548 -60.8172 1.27572 1.55745 4.12926 9.63379 -0.250344 -7.15256e-007 0.691536 -2.27602 9.77922 0 -40.4779 -1.71313 0.222262 3.5153 -0.0432546 0.0126047 -40.4416 -0.864524 0.0567852 -0.940284 -0.00516684 -0.183287 -12.1867 8.28226 2.77363e-011 3.82565e-011 9.42414e-011 
-26.9326 92.6543 -60.8153 1.28513 1.56031 4.1073 9.63379 -0.250344 -7.15256e-007 0.679929 -2.26565 9.77228 0 -40.4779 -1.71313 0.220021 3.49485 -0.0432537 0.0126047 -40.4416 -0.864524 0.056786 -0.931451 -0.00516683 -0.183287 -12.1867 8.28226 2.77363e-011 3.82565e-011 9.42414e-011 
-26.9342 92.6539 -60.814 1.29715 1.55974 4.08564 9.63379 -0.250344 -7.15256e-007 0.667647 -2.25299 9.76784 0 -40.4779 -1.71313 0.213961 3.47444 -0.0432527 0.0126047 -40.4416 -0.864524 0.0567869 -0.922182 -0.00516681 -0.183287 -12.1867 8.28226 2.77363e-011 3.82565e-011 9.42414e-011 
-26.9358 92.6537 -60.8128 1.30891 1.55935 4.06459 9.63379 -0.250344 -7.15256e-007 0.656063 -2.24153 9.76432 0 -40.4779 -1.71313 0.207341 3.45614 -0.0432519 0.0126047 -40.4416 -0.864524 0.0567876 -0.91448 -0.0051668 -0.183287 -12.1867 8.28226 2.77363e-011 3.82565e-011 9.42414e-011 
-26.9368 92.6534 -60.8108 1.31753 1.56275 4.04448 9.63379 -0.250344 -7.15256e-007 0.646547 -2.2348 9.76015 0 -40.4779 -1.71313 0.203416 3.44204 -0.0432512 0.0126047 -40.4416 -0.864524 0.0567879 -0.910346 -0.0051668 -0.183287 -12.1867 8.28226 2.77363e-011 3.82565e-011 9.42414e-011 
-26.9369 92.6534 -60.8076 1.32184 1.57378 4.02376 9.63379 -0.250344 -7.15256e-007 0.639468 -2.2371 9.75427 0 -40.4779 -1.71313 0.203551 3.43504 -0.0432509 0.0126047 -40.4416 -0.864524 0.0567878 -0.912343 -0.0051668 -0.183287 -12.1867 8.28226 2.77363e-011 3.82565e-011 9.42414e-011 
-26.9365 92.6534 -60.8038 1.32351 1.58954 4.0028 9.63379 -0.250344 -7.15256e-007 0.63409 -2.24543 9.74773 0 -40.4779 -1.71313 0.205843 3.43326 -0.0432508 0.0126047 -40.4416 -0.864524 0.0567872 -0.918729 -0.00516681 -0.183287 -12.1867 8.28226 2.77363e-011 3.82565e-011 9.42414e-011 
-26.936 92.6534 -60.7998 1.32396 1.60359 3.98482 9.63379 -0.250344 -7.15256e-007 0.630135 -2.25236 9.74212 0 -40.4779 -1.71313 0.208652 3.43155 -0.0432508 0.0126047 -40.4416 -0.864524 0.0567866 -0.925039 -0.00516682 -0.183287 -12.1867 8.28226 2.77363e-011 3.82565e-011 9.42414e-011 
-26.9355 92.653 -60.7964 1.32459 1.60948 3.97305 9.63379 -0.250344 -7.15256e-007 0.627324 -2.25047 9.73905 0 -40.4779 -1.71313 0.210338 3.42477 -0.0432505 0.0126047 -40.4416 -0.864524 0.0567865 -0.926813 -0.00516682 -0.183287 -12.1867 8.28226 2.77363e-011 3.82565e-011 9.42414e-011 
-26.9354 92.652 -60.7935 1.32573 1.60328 3.96895 9.63379 -0.250344 -7.15256e-007 0.626144 -2.23404 9.74016 0 -40.4779 -1.71313 0.209985 3.40776 -0.0432497 0.0126047 -40.4416 -0.864524 0.0567869 -0.921452 -0.00516681 -0.183287 -12.1867 8.28226 2.77363e-011 3.82565e-011 9.42414e-011 
-26.9352 92.6506 -60.7909 1.32665 1.58917 3.97061 9.63379 -0.250344 -7.15256e-007 0.626554 -2.20826 9.74418 0 -40.4779 -1.71313 0.208628 3.38452 -0.0432487 0.0126047 -40.4416 -0.864524 0.0567878 -0.911805 -0.0051668 -0.183287 -12.1867 8.28226 2.77363e-011 3.82565e-011 9.42414e-011 
-26.9351 92.6493 -60.7885 1.32712 1.57284 3.97617 9.63379 -0.250344 -7.15256e-007 0.62749 -2.18214 9.74839 0 -40.4779 -1.71313 0.207551 3.36369 -0.0432477 0.0126047 -40.4416 -0.864524 0.0567887 -0.901582 -0.00516678 -0.183287 -12.1867 8.28226 2.77363e-011 3.82565e-011 9.42414e-011 
-26.9349 92.6487 -60.7863 1.3269 1.56001 3.98376 9.63379 -0.250344 -7.15256e-007 0.627899 -2.16464 9.75004 0 -40.4779 -1.71313 0.208039 3.35391 -0.0432473 0.0126047 -40.4416 -0.864524 0.0567894 -0.894491 -0.00516677 -0.183287 -12.1867 8.28226 2.77363e-011 3.82565e-011 9.42414e-011 
-26.9347 92.6492 -60.7842 1.32616 1.55147 3.99329 9.63379 -0.250344 -7.15256e-007 0.627044 -2.15812 9.74811 0 -40.4779 -1.71313 0.21034 3.35916 -0.0432475 0.0126047 -40.4416 -0.864524 0.0567897 -0.89117 -0.00516677 -0.183287 -12.1867 8.28226 2.77363e-011 3.82565e-011 9.42414e-011 
-26.9345 92.6503 -60.7823 1.32495 1.54442 4.00561 9.63379 -0.250344 -7.15256e-007 0.625641 -2.1578 9.74414 0 -40.4779 -1.71313 0.213801 3.37427 -0.0432482 0.0126047 -40.4416 -0.864524 0.0567898 -0.889758 -0.00516677 -0.183287 -12.1867 8.28226 2.77363e-011 3.82565e-011 9.42414e-011 
-26.9341 92.6517 -60.7806 1.32286 1.53917 4.02031 9.63379 -0.250344 -7.15256e-007 0.624815 -2.16199 9.7393 0 -40.4779 -1.71313 0.218352 3.39418 -0.0432491 0.0126047 -40.4416 -0.864524 0.0567898 -0.890217 -0.00516677 -0.183287 -12.1867 8.28226 2.77363e-011 3.82565e-011 9.42414e-011 
-26.9333 92.6527 -60.7791 1.31944 1.536 4.03699 9.63379 -0.250344 -7.15256e-007 0.625692 -2.16901 9.73474 0 -40.4779 -1.71313 0.223923 3.41384 -0.04325 0.0126047 -40.4416 -0.864524 0.0567895 -0.892509 -0.00516677 -0.183287 -12.1867 8.28226 2.77363e-011 3.82565e-011 9.42414e-011 
-26.9323 92.6532 -60.7784 1.31346 1.5368 4.05515 9.63379 -0.250344 -7.15256e-007 0.629747 -2.18307 9.73017 0 -40.4779 -1.71313 0.231627 3.43687 -0.043251 0.0126047 -40.4416 -0.864524 0.056789 -0.898727 -0.00516678 -0.183287 -12.1867 8.28226 2.77363e-011 3.82565e-011 9.42414e-011 
-26.931 92.6536 -60.7781 1.3055 1.54081 4.07513 9.63379 -0.250344 -7.15256e-007 0.635986 -2.2035 9.72518 0 -40.4779 -1.71313 0.241126 3.4643 -0.0432523 0.0126047 -40.4416 -0.864524 0.0567881 -0.90819 -0.00516679 -0.183287 -12.1867 8.28226 2.77363e-011 3.82565e-011 9.42414e-011 
-26.9293 92.6538 -60.7774 1.29794 1.54437 4.09779 9.63379 -0.250344 -7.15256e-007 0.641831 -2.22136 9.72071 0 -40.4779 -1.71313 0.250166 3.48721 -0.0432533 0.0126047 -40.4416 -0.864524 0.0567874 -0.916699 -0.00516681 -0.183287 -12.1867 8.28226 2.77363e-011 3.82565e-011 9.42414e-011 
-26.9269 92.6539 -60.7754 1.29315 1.54383 4.12398 9.63379 -0.250344 -7.15256e-007 0.644706 -2.22769 9.71771 0 -40.4779 -1.71313 0.256492 3.49668 -0.0432537 0.0126047 -40.4416 -0.864524 0.0567871 -0.920052 -0.00516681 -0.183287 -12.1867 8.28226 2.77363e-011 3.82565e-011 9.42414e-011 
-26.9234 92.6542 -60.7712 1.29236 1.53512 4.15531 9.63379 -0.250344 -7.15256e-007 0.643234 -2.21338 9.71748 0 -40.4779 -1.71313 0.258509 3.48298 -0.0432531 0.0126047 -40.4416 -0.864524 0.0567876 -0.913824 -0.0051668 -0.183287 -12.1867 8.28226 2.77363e-011 3.82565e-011 9.42414e-011 
-26.9192 92.6545 -60.7656 1.29411 1.52121 4.19087 9.63379 -0.250344 -7.15256e-007 0.639019 -2.18545 9.71918 0 -40.4779 -1.71313 0.257751 3.45332 -0.0432518 0.0126047 -40.4416 -0.864524 0.0567887 -0.901355 -0.00516678 -0.183287 -12.1867 8.28226 2.77363e-011 3.82565e-011 9.42414e-011 
-26.9148 92.6544 -60.7596 1.29678 1.50904 4.2277 9.63379 -0.250344 -7.15256e-007 0.633963 -2.15912 9.7205 0 -40.4779 -1.71313 0.256658 3.42417 -0.0432504 0.0126047 -40.4416 -0.864524 0.0567898 -0.890102 -0.00516677 -0.183287 -12.1867 8.28226 2.77363e-011 3.82565e-011 9.42414e-011 
-26.9113 92.6537 -60.7545 1.29872 1.50552 4.26285 9.63379 -0.250344 -7.15256e-007 0.629976 -2.14962 9.71913 0 -40.4779 -1.71313 0.257673 3.412 -0.0432499 0.0126047 -40.4416 -0.864524 0.05679 -0.887519 -0.00516676 -0.183287 -12.1867 8.28226 2.77363e-011 3.82565e-011 9.42414e-011 
